<svg width="640" height="480" viewBox="0 0 640 480" fill="none" xmlns="http://www.w3.org/2000/svg">
  <rect width="640" height="480" rx="32" fill="url(#bg)"/>
  <rect x="76" y="72" width="488" height="336" rx="30" fill="#FFFFFF" fill-opacity="0.72"/>
  <rect x="110" y="108" width="164" height="132" rx="24" fill="#E0F2FE"/>
  <rect x="292" y="108" width="238" height="86" rx="24" fill="#FFFFFF" fill-opacity="0.92"/>
  <rect x="292" y="216" width="238" height="156" rx="24" fill="#DBEAFE"/>
  <rect x="110" y="260" width="164" height="112" rx="24" fill="#FFFFFF" fill-opacity="0.88"/>
  <rect x="132" y="132" width="84" height="10" rx="5" fill="#0F172A" fill-opacity="0.1"/>
  <rect x="132" y="150" width="58" height="10" rx="5" fill="#0F172A" fill-opacity="0.08"/>
  <path d="M132 212L162 188L190 196L222 164L252 176" stroke="#2563EB" stroke-width="12" stroke-linecap="round" stroke-linejoin="round"/>
  <rect x="318" y="132" width="130" height="10" rx="5" fill="#0F172A" fill-opacity="0.1"/>
  <rect x="318" y="150" width="178" height="10" rx="5" fill="#0F172A" fill-opacity="0.08"/>
  <circle cx="366" cy="308" r="44" fill="#FFFFFF" fill-opacity="0.84"/>
  <path d="M366 264C390 264 410 284 410 308C410 332 390 352 366 352C342 352 322 332 322 308C322 284 342 264 366 264Z" fill="#60A5FA"/>
  <path d="M366 308L410 308" stroke="#1D4ED8" stroke-width="10" stroke-linecap="round"/>
  <rect x="430" y="262" width="70" height="16" rx="8" fill="#0F172A" fill-opacity="0.1"/>
  <rect x="430" y="288" width="52" height="16" rx="8" fill="#0F172A" fill-opacity="0.08"/>
  <rect x="132" y="288" width="96" height="10" rx="5" fill="#0F172A" fill-opacity="0.1"/>
  <rect x="132" y="308" width="72" height="10" rx="5" fill="#0F172A" fill-opacity="0.08"/>
  <defs>
    <linearGradient id="bg" x1="56" y1="48" x2="598" y2="430" gradientUnits="userSpaceOnUse">
      <stop stop-color="#EFF6FF"/>
      <stop offset="0.52" stop-color="#BFDBFE"/>
      <stop offset="1" stop-color="#99F6E4"/>
    </linearGradient>
  </defs>
</svg>
