<svg width="640" height="480" viewBox="0 0 640 480" fill="none" xmlns="http://www.w3.org/2000/svg">
  <rect width="640" height="480" rx="32" fill="url(#bg)"/>
  <g opacity="0.9">
    <rect x="64" y="84" width="512" height="312" rx="28" fill="#FFFFFF" fill-opacity="0.72"/>
    <rect x="102" y="122" width="220" height="18" rx="9" fill="#1F2937" fill-opacity="0.18"/>
    <rect x="102" y="154" width="176" height="12" rx="6" fill="#1F2937" fill-opacity="0.12"/>
    <rect x="102" y="206" width="172" height="130" rx="22" fill="#F6C58A"/>
    <rect x="292" y="206" width="246" height="76" rx="22" fill="#FFFFFF" fill-opacity="0.92"/>
    <rect x="314" y="228" width="132" height="10" rx="5" fill="#111827" fill-opacity="0.12"/>
    <rect x="314" y="246" width="182" height="10" rx="5" fill="#111827" fill-opacity="0.08"/>
    <rect x="292" y="298" width="246" height="38" rx="19" fill="#111827" fill-opacity="0.06"/>
    <path d="M124 298C156 270 186 272 218 292C248 312 276 316 306 292" stroke="#7C4DFF" stroke-width="12" stroke-linecap="round"/>
    <circle cx="182" cy="262" r="42" fill="#FFF7ED"/>
    <circle cx="182" cy="262" r="22" fill="#F97316" fill-opacity="0.18"/>
  </g>
  <defs>
    <linearGradient id="bg" x1="72" y1="52" x2="590" y2="446" gradientUnits="userSpaceOnUse">
      <stop stop-color="#FFF7ED"/>
      <stop offset="0.5" stop-color="#FDE68A"/>
      <stop offset="1" stop-color="#FCA5A5"/>
    </linearGradient>
  </defs>
</svg>
